<mxfile host="app.diagrams.net" agent="Mozilla/5.0 (Windows NT 10.0; Win64; x64; rv:136.0) Gecko/20100101 Firefox/136.0" version="26.1.1">
  <diagram id="R2lEEEUBdFMjLlhIrx00" name="Page-1">
    <mxGraphModel dx="1195" dy="685" grid="1" gridSize="10" guides="1" tooltips="1" connect="1" arrows="1" fold="1" page="1" pageScale="1" pageWidth="850" pageHeight="1100" math="0" shadow="0" extFonts="Permanent Marker^https://fonts.googleapis.com/css?family=Permanent+Marker">
      <root>
        <mxCell id="0" />
        <mxCell id="1" parent="0" />
        <mxCell id="tziCC_M-l1-tC98nSuf9-1" value="&lt;font face=&quot;Tahoma&quot; style=&quot;font-size: 18px;&quot;&gt;Domain&lt;/font&gt;" style="whiteSpace=wrap;html=1;align=center;" vertex="1" parent="1">
          <mxGeometry x="20" y="90" width="100" height="40" as="geometry" />
        </mxCell>
        <mxCell id="tziCC_M-l1-tC98nSuf9-2" value="" style="edgeStyle=entityRelationEdgeStyle;fontSize=11;html=1;endArrow=open;endFill=0;rounded=0;exitX=1;exitY=0.5;exitDx=0;exitDy=0;entryX=0;entryY=0.5;entryDx=0;entryDy=0;startArrow=diamondThin;startFill=1;strokeColor=default;align=center;verticalAlign=middle;fontFamily=Helvetica;fontColor=default;labelBackgroundColor=default;" edge="1" parent="1" source="tziCC_M-l1-tC98nSuf9-1" target="tziCC_M-l1-tC98nSuf9-3">
          <mxGeometry width="100" height="100" relative="1" as="geometry">
            <mxPoint x="350" y="490" as="sourcePoint" />
            <mxPoint x="450" y="390" as="targetPoint" />
          </mxGeometry>
        </mxCell>
        <mxCell id="tziCC_M-l1-tC98nSuf9-6" value="" style="edgeStyle=orthogonalEdgeStyle;rounded=0;orthogonalLoop=1;jettySize=auto;html=1;startArrow=block;startFill=1;endArrow=none;endFill=0;endSize=6;startSize=12;" edge="1" parent="1" source="tziCC_M-l1-tC98nSuf9-3" target="tziCC_M-l1-tC98nSuf9-5">
          <mxGeometry relative="1" as="geometry" />
        </mxCell>
        <mxCell id="tziCC_M-l1-tC98nSuf9-3" value="&lt;font style=&quot;font-size: 18px;&quot; face=&quot;Tahoma&quot;&gt;Entity&lt;/font&gt;" style="whiteSpace=wrap;html=1;align=center;" vertex="1" parent="1">
          <mxGeometry x="220" y="90" width="100" height="40" as="geometry" />
        </mxCell>
        <mxCell id="tziCC_M-l1-tC98nSuf9-4" value="1&lt;span style=&quot;white-space: pre;&quot;&gt;&#x9;&lt;span style=&quot;white-space: pre;&quot;&gt;&#x9;&lt;/span&gt;&lt;/span&gt;0 ... *" style="text;html=1;align=center;verticalAlign=middle;whiteSpace=wrap;rounded=0;" vertex="1" parent="1">
          <mxGeometry x="120" y="80" width="100" height="30" as="geometry" />
        </mxCell>
        <mxCell id="tziCC_M-l1-tC98nSuf9-8" value="" style="edgeStyle=orthogonalEdgeStyle;rounded=0;orthogonalLoop=1;jettySize=auto;html=1;startArrow=diamondThin;startFill=1;endArrow=open;endFill=0;" edge="1" parent="1" source="tziCC_M-l1-tC98nSuf9-5" target="tziCC_M-l1-tC98nSuf9-7">
          <mxGeometry relative="1" as="geometry" />
        </mxCell>
        <mxCell id="tziCC_M-l1-tC98nSuf9-5" value="&lt;font face=&quot;Tahoma&quot; style=&quot;font-size: 18px;&quot;&gt;Participant&lt;/font&gt;" style="whiteSpace=wrap;html=1;" vertex="1" parent="1">
          <mxGeometry x="100" y="250" width="120" height="40" as="geometry" />
        </mxCell>
        <mxCell id="tziCC_M-l1-tC98nSuf9-10" value="" style="edgeStyle=orthogonalEdgeStyle;rounded=0;orthogonalLoop=1;jettySize=auto;html=1;strokeColor=default;align=center;verticalAlign=middle;fontFamily=Helvetica;fontSize=11;fontColor=default;labelBackgroundColor=default;startArrow=diamondThin;startFill=1;endArrow=open;endFill=0;" edge="1" parent="1" source="tziCC_M-l1-tC98nSuf9-7" target="tziCC_M-l1-tC98nSuf9-9">
          <mxGeometry relative="1" as="geometry" />
        </mxCell>
        <mxCell id="tziCC_M-l1-tC98nSuf9-7" value="&lt;font face=&quot;Tahoma&quot; style=&quot;font-size: 18px;&quot;&gt;Group&lt;/font&gt;" style="whiteSpace=wrap;html=1;" vertex="1" parent="1">
          <mxGeometry x="300" y="250" width="120" height="40" as="geometry" />
        </mxCell>
        <mxCell id="tziCC_M-l1-tC98nSuf9-9" value="&lt;font face=&quot;Tahoma&quot; style=&quot;font-size: 18px;&quot;&gt;Endpoint&lt;/font&gt;" style="whiteSpace=wrap;html=1;" vertex="1" parent="1">
          <mxGeometry x="500" y="250" width="120" height="40" as="geometry" />
        </mxCell>
        <mxCell id="tziCC_M-l1-tC98nSuf9-11" value="0 ... *" style="text;html=1;align=center;verticalAlign=middle;whiteSpace=wrap;rounded=0;" vertex="1" parent="1">
          <mxGeometry x="250" y="270" width="50" height="30" as="geometry" />
        </mxCell>
        <mxCell id="tziCC_M-l1-tC98nSuf9-12" value="0 ... *" style="text;html=1;align=center;verticalAlign=middle;whiteSpace=wrap;rounded=0;" vertex="1" parent="1">
          <mxGeometry x="450" y="270" width="50" height="30" as="geometry" />
        </mxCell>
        <mxCell id="tziCC_M-l1-tC98nSuf9-15" value="" style="endArrow=none;html=1;rounded=0;exitX=0.5;exitY=0;exitDx=0;exitDy=0;" edge="1" parent="1" source="tziCC_M-l1-tC98nSuf9-7">
          <mxGeometry width="50" height="50" relative="1" as="geometry">
            <mxPoint x="360" y="255" as="sourcePoint" />
            <mxPoint x="270" y="195" as="targetPoint" />
            <Array as="points">
              <mxPoint x="360" y="195" />
            </Array>
          </mxGeometry>
        </mxCell>
        <mxCell id="tziCC_M-l1-tC98nSuf9-16" value="" style="endArrow=none;html=1;rounded=0;exitX=0.5;exitY=0;exitDx=0;exitDy=0;" edge="1" parent="1" source="tziCC_M-l1-tC98nSuf9-9">
          <mxGeometry width="50" height="50" relative="1" as="geometry">
            <mxPoint x="560" y="245" as="sourcePoint" />
            <mxPoint x="360" y="195" as="targetPoint" />
            <Array as="points">
              <mxPoint x="560" y="195" />
            </Array>
          </mxGeometry>
        </mxCell>
        <mxCell id="tziCC_M-l1-tC98nSuf9-21" style="edgeStyle=orthogonalEdgeStyle;rounded=0;orthogonalLoop=1;jettySize=auto;html=1;exitX=0.5;exitY=0;exitDx=0;exitDy=0;entryX=0.5;entryY=1;entryDx=0;entryDy=0;endArrow=block;endFill=1;startSize=6;endSize=12;" edge="1" parent="1" source="tziCC_M-l1-tC98nSuf9-18" target="tziCC_M-l1-tC98nSuf9-9">
          <mxGeometry relative="1" as="geometry">
            <Array as="points">
              <mxPoint x="180" y="350" />
              <mxPoint x="560" y="350" />
            </Array>
          </mxGeometry>
        </mxCell>
        <mxCell id="tziCC_M-l1-tC98nSuf9-24" style="rounded=0;orthogonalLoop=1;jettySize=auto;html=1;exitX=1;exitY=0.5;exitDx=0;exitDy=0;entryX=0;entryY=0.5;entryDx=0;entryDy=0;endArrow=open;endFill=0;endSize=12;strokeColor=default;align=center;verticalAlign=middle;fontFamily=Helvetica;fontSize=11;fontColor=default;labelBackgroundColor=default;startArrow=diamondThin;startFill=1;" edge="1" parent="1" source="tziCC_M-l1-tC98nSuf9-18" target="tziCC_M-l1-tC98nSuf9-23">
          <mxGeometry relative="1" as="geometry" />
        </mxCell>
        <mxCell id="tziCC_M-l1-tC98nSuf9-18" value="&lt;font face=&quot;Tahoma&quot; style=&quot;font-size: 18px;&quot;&gt;Writer&lt;/font&gt;" style="whiteSpace=wrap;html=1;" vertex="1" parent="1">
          <mxGeometry x="140" y="390" width="80" height="40" as="geometry" />
        </mxCell>
        <mxCell id="tziCC_M-l1-tC98nSuf9-25" style="rounded=0;orthogonalLoop=1;jettySize=auto;html=1;exitX=0;exitY=0.5;exitDx=0;exitDy=0;entryX=1;entryY=0.5;entryDx=0;entryDy=0;strokeColor=default;align=center;verticalAlign=middle;fontFamily=Helvetica;fontSize=11;fontColor=default;labelBackgroundColor=default;startArrow=diamondThin;startFill=1;endArrow=open;endFill=0;endSize=12;" edge="1" parent="1" source="tziCC_M-l1-tC98nSuf9-19" target="tziCC_M-l1-tC98nSuf9-23">
          <mxGeometry relative="1" as="geometry" />
        </mxCell>
        <mxCell id="tziCC_M-l1-tC98nSuf9-19" value="&lt;font face=&quot;Tahoma&quot; style=&quot;font-size: 18px;&quot;&gt;Reader&lt;/font&gt;" style="whiteSpace=wrap;html=1;" vertex="1" parent="1">
          <mxGeometry x="670" y="390" width="80" height="40" as="geometry" />
        </mxCell>
        <mxCell id="tziCC_M-l1-tC98nSuf9-22" value="" style="endArrow=none;html=1;rounded=0;exitX=0.5;exitY=0;exitDx=0;exitDy=0;" edge="1" parent="1" source="tziCC_M-l1-tC98nSuf9-19">
          <mxGeometry width="50" height="50" relative="1" as="geometry">
            <mxPoint x="290" y="340" as="sourcePoint" />
            <mxPoint x="560" y="350" as="targetPoint" />
            <Array as="points">
              <mxPoint x="710" y="350" />
            </Array>
          </mxGeometry>
        </mxCell>
        <mxCell id="tziCC_M-l1-tC98nSuf9-23" value="&lt;font style=&quot;font-size: 18px;&quot; face=&quot;Tahoma&quot;&gt;Message&lt;/font&gt;" style="whiteSpace=wrap;html=1;" vertex="1" parent="1">
          <mxGeometry x="405" y="450" width="80" height="40" as="geometry" />
        </mxCell>
        <mxCell id="tziCC_M-l1-tC98nSuf9-26" value="&lt;font face=&quot;Tahoma&quot;&gt;StatefulWriter&lt;/font&gt;" style="whiteSpace=wrap;html=1;" vertex="1" parent="1">
          <mxGeometry x="190" y="510" width="90" height="40" as="geometry" />
        </mxCell>
        <mxCell id="tziCC_M-l1-tC98nSuf9-30" style="edgeStyle=orthogonalEdgeStyle;rounded=0;orthogonalLoop=1;jettySize=auto;html=1;exitX=0.5;exitY=0;exitDx=0;exitDy=0;entryX=0.5;entryY=1;entryDx=0;entryDy=0;endArrow=block;endFill=1;endSize=12;" edge="1" parent="1" source="tziCC_M-l1-tC98nSuf9-27" target="tziCC_M-l1-tC98nSuf9-18">
          <mxGeometry relative="1" as="geometry">
            <Array as="points">
              <mxPoint x="125" y="480" />
              <mxPoint x="180" y="480" />
            </Array>
          </mxGeometry>
        </mxCell>
        <mxCell id="tziCC_M-l1-tC98nSuf9-27" value="&lt;font face=&quot;Tahoma&quot;&gt;StatelessWriter&lt;/font&gt;" style="whiteSpace=wrap;html=1;" vertex="1" parent="1">
          <mxGeometry x="80" y="510" width="90" height="40" as="geometry" />
        </mxCell>
        <mxCell id="tziCC_M-l1-tC98nSuf9-28" value="&lt;font face=&quot;Tahoma&quot;&gt;StatefulReader&lt;/font&gt;" style="whiteSpace=wrap;html=1;" vertex="1" parent="1">
          <mxGeometry x="720" y="510" width="100" height="40" as="geometry" />
        </mxCell>
        <mxCell id="tziCC_M-l1-tC98nSuf9-32" style="edgeStyle=orthogonalEdgeStyle;rounded=0;orthogonalLoop=1;jettySize=auto;html=1;exitX=0.5;exitY=0;exitDx=0;exitDy=0;entryX=0.5;entryY=1;entryDx=0;entryDy=0;endArrow=block;endFill=1;endSize=12;" edge="1" parent="1" source="tziCC_M-l1-tC98nSuf9-29" target="tziCC_M-l1-tC98nSuf9-19">
          <mxGeometry relative="1" as="geometry">
            <Array as="points">
              <mxPoint x="650" y="480" />
              <mxPoint x="710" y="480" />
            </Array>
          </mxGeometry>
        </mxCell>
        <mxCell id="tziCC_M-l1-tC98nSuf9-29" value="&lt;font face=&quot;Tahoma&quot;&gt;StatelessReader&lt;/font&gt;" style="whiteSpace=wrap;html=1;" vertex="1" parent="1">
          <mxGeometry x="600" y="510" width="100" height="40" as="geometry" />
        </mxCell>
        <mxCell id="tziCC_M-l1-tC98nSuf9-31" value="" style="endArrow=none;html=1;rounded=0;exitX=0.5;exitY=0;exitDx=0;exitDy=0;" edge="1" parent="1" source="tziCC_M-l1-tC98nSuf9-26">
          <mxGeometry width="50" height="50" relative="1" as="geometry">
            <mxPoint x="290" y="510" as="sourcePoint" />
            <mxPoint x="180" y="480" as="targetPoint" />
            <Array as="points">
              <mxPoint x="235" y="480" />
            </Array>
          </mxGeometry>
        </mxCell>
        <mxCell id="tziCC_M-l1-tC98nSuf9-33" value="" style="endArrow=none;html=1;rounded=0;exitX=0.5;exitY=0;exitDx=0;exitDy=0;" edge="1" parent="1" source="tziCC_M-l1-tC98nSuf9-28">
          <mxGeometry width="50" height="50" relative="1" as="geometry">
            <mxPoint x="750" y="490" as="sourcePoint" />
            <mxPoint x="710" y="480" as="targetPoint" />
            <Array as="points">
              <mxPoint x="770" y="480" />
            </Array>
          </mxGeometry>
        </mxCell>
        <mxCell id="tziCC_M-l1-tC98nSuf9-34" value="&lt;pre aria-label=&quot;Texto traducido: Módulo de estructura RTPS&quot; dir=&quot;ltr&quot; data-ved=&quot;2ahUKEwjum5W9mZWMAxVHN0QIHQoxLa4Q3ewLegQICBAV&quot; style=&quot;text-align:left&quot; id=&quot;tw-target-text&quot; data-placeholder=&quot;Traducción&quot; class=&quot;tw-data-text tw-text-large tw-ta&quot;&gt;&lt;font style=&quot;font-size: 24px;&quot; face=&quot;Tahoma&quot;&gt;&lt;span lang=&quot;es&quot; class=&quot;Y2IQFc&quot;&gt;Estructura del módulo RTPS&lt;/span&gt;&lt;/font&gt;&lt;/pre&gt;" style="text;html=1;align=center;verticalAlign=middle;whiteSpace=wrap;rounded=0;" vertex="1" parent="1">
          <mxGeometry x="205" y="20" width="440" height="30" as="geometry" />
        </mxCell>
      </root>
    </mxGraphModel>
  </diagram>
</mxfile>
